<svg width="146" height="32" fill="none" xmlns="http://www.w3.org/2000/svg"><path d="M7.099 25.731l2.155-4.417h9.097l.373 4.417h6.97L23.366 0c-1.998.427-3.708.399-5.145.3-1.063-.086-1.667-.2-2.385-.1-2.098.299-4.139 2.464-4.972 4.245L0 25.731h7.099zm36.988-15.345l-3.204 16.2c-.848 4.046-2.616 5.286-6.079 5.414l1.667-8.848c-1.365 2.266-2.96 2.892-5.69 2.722-1.365-.086-2.587-.456-3.248-1.325-.747-.998-.905-2.565-.517-4.531l.92-4.66c1.048-4.359 4.152-5.2 6.294-5.2 4.9.143 6.754 1.183 9.857.229zm-8.262 3.69c-1.567 0-2.601-.014-3.234 3.021l-.373 1.781c-.173.87-.23 1.824.014 2.322.489 1.112 2.659.912 3.593.527.79-.37 1.221-1.353 1.508-2.564l.446-2.109c.417-2.422-.086-2.977-1.954-2.977zm-17.762 2.195h-6.265l5.446-11.213.82 11.213zm93.506 4.331c-.747 2.935-2.026 4.431-4.957 5-2.328.457-5.432.414-7.372-.213-1.437-.456-2.07-1.453-2.3-2.607-.445-2.194.69-7.067 1.653-8.962 1.02-2.009 2.256-2.85 4.441-3.32 2.184-.47 5-.47 6.912.114 1.681.513 2.399 1.397 2.572 3.15.1 1.01-.015 2.265-.331 3.76l-.287 1.411h-9.829l-.158.77c-.259 1.567-.173 2.692 1.595 2.692h.848c.991 0 1.896-.313 2.342-1.766h4.871v-.029zM83.936 4.474c1.968-.84 4.627-.542 7.242.327L89.526 8.05c-.532-.399-1.365-.613-2.098-.556-.92.071-1.437.485-1.754 1.354-.158.441-.258.983-.373 1.538h2.6l-.732 3.69h-2.601l-2.342 11.598-4.958.014 3.233-16.213c.632-3.206 1.897-4.175 3.435-5.001zm2.658 21.214l3.032-15.33c1.983.613 3.621.427 4.958.114 1.667-.385 3.362-.456 4.282.085L97.1 14.333c-.259-.085-1.164-.256-1.998-.128-.704.114-1.336.441-1.523 1.325l-2.026 10.144-4.958.014zM77.6 10.387l-3.033 15.301h-4.943l.474-2.536c-1.365 2.266-3.118 2.893-5.848 2.722-1.365-.086-2.644-.456-3.305-1.325-.748-.998-.877-2.565-.489-4.531l.948-4.66c1.05-4.359 4.153-5.2 6.295-5.2 4.914.143 6.797 1.183 9.9.229zm-8.292 3.69c-1.566 0-2.63.114-3.233 3.02l-.374 1.781c-.172.87-.23 1.824.014 2.322.489 1.112 2.659.912 3.593.527.79-.37 1.15-1.353 1.451-2.564l.446-2.109c.417-2.422-.058-2.977-1.897-2.977zm-8.694-3.69L57.61 25.674h-5.016l.561-2.664c-1.221 2.408-2.687 2.85-5.145 2.85-4.124 0-4.67-2.309-4.152-4.987L45.927 10.4h5.03l-1.826 9.004c-.373 1.795-.273 2.622 1.452 2.622 1.767-.114 2.83-1.069 3.032-2.152l1.897-9.474 5.101-.014zm68.574 15.301l3.334-17.011c.833-4.346 3.88-4.759 5.92-4.802l-1.839 9.062h.172c1.136-2.166 2.386-2.693 4.987-2.693 4.124 0 4.613 2.109 4.024 5.158l-1.998 10.272h-5.073l1.84-9.033c.373-1.866.086-2.507-1.638-2.507-1.94 0-2.716 1.168-3.09 3.077l-1.681 8.477h-4.958zm-15.85-4.787h4.943c-.201 1.468.446 1.724 1.768 1.724h.848c1.336-.1 2.069.057 2.356-1.282.374-1.795-.919-1.468-2.012-1.553-.919-.029-1.81-.029-2.73-.1-1.336-.128-2.888-.442-3.549-1.168-.977-1.069-.618-2.593-.302-3.861.345-1.44.891-2.622 2.4-3.52 1.164-.74 2.946-.954 5.618-.968 2.4-.014 4.484.1 5.59 1.097.791.712.877 1.638.604 2.906l-.115.57h-4.699c.057-.598-.144-.869-.402-1.068-.259-.2-.776-.228-1.423-.228h-.632c-.489 0-1.308.085-1.61.27-.345.228-.431.528-.531 1.055-.087.427-.015.627.158.812.158.157.675.313 1.077.356l3.607.157c1.624.142 2.716.413 3.377 1.026.977.826.791 2.507.503 3.704-.316 1.354-.92 2.807-2.457 3.847-1.092.755-3.09 1.182-6.122 1.254-2.974.07-4.842-.214-5.748-1.183-.718-.77-.919-1.98-.575-3.633l.058-.214zm-10.677-4.773h4.857l.086-.37c.259-1.468-.201-2.052-1.624-2.052h-.704c-1.307 0-2.069.428-2.486 1.938l-.129.484z" fill="#000"/></svg>