<svg width="149" height="49" fill="none" xmlns="http://www.w3.org/2000/svg"><path d="M124.088 41.375c-.002 0-.46.406-.46.406-.653.583-1.325 1.206-2.136.894-.224-.081-.382-.379-.419-.61-.037-1.667.715-3.212 1.445-4.716l.187-.394c2.099-3.497 4.539-7.617 8.123-10.477.604-.435 1.259-.8 1.951-.515.159.148.344.406.344.663 0 .082-.072.299-.114.366-1.001 1.614-1.954 3.308-2.881 4.935-1.812 3.212-3.691 6.533-6.04 9.448zm-19.418-8.242c-.137.095-2.558-.718-3.026-2.955-.397-1.925.932-3.43 2.218-4.188.552-.434 1.383-.583 1.993-.367.566.38.72 1.058.72 1.79 0 .448-.06.908-.112 1.328l-.012.095a18.047 18.047 0 01-1.781 4.297zm-9.248 9.096c-.247-.366-.328-.766-.337-1.2-.047-2.657 2.82-7.417 4.842-10.01h.005c.848 1.852 2.767 3.043 3.926 3.545-1.439 3.199-6.376 10.05-8.435 7.665zm34.941.472c-.479.325-1.152.075-.9-.67.627-1.898 3.119-5.765 3.119-5.765l6.942-12.285h-4.755c-.226.37-.709 1.22-.709 1.22-.22-.365-.878-1.178-1.149-1.354-1.162-.732-2.867-.386-4.042.278-5.113 2.983-8.843 8.876-11.785 13.47 0 0-3.097 5.109-4.816 5.489-1.342.108-1.203-1.695-1.145-2.116.519-3.036 1.724-5.923 2.938-8.54a65.74 65.74 0 007.848-6.397c5.558-5.3 10.243-11.306 10.928-12.648 0 0-.742.15-1.617.177-4.276 5.95-13.025 14.599-15.678 15.886 1.175-2.82 8.768-16.28 15.229-22.718l1.017-.976c1.572-1.532 3.201-3.104 4.47-3.362.134-.014.307 0 .456.312.056 1.193-.389 2.074-.899 3.077l-.716 1.464s1.014-.19 1.679-.407c.773-1.45 1.628-3.077 1.313-5.015-.106-.624-.558-1.098-1.149-1.206-1.928-.366-4.028 1.056-5.718 2.209l-.068.04c-8.689 6.792-16.025 16.579-22.439 29.944-.465.352-2.261.773-2.567.569.634-1.3 1.431-3.05 1.83-4.948.069-.542.134-1.097.134-1.64 0-1.166-.281-2.264-1.329-3.023-1.228-.61-2.746-.325-3.769.136-4.585 1.897-8.012 6.588-10.485 10.45-1.33 2.455-2.656 5.083-3.023 8.093-.258 2.358.268 3.876 1.612 4.636 1.382.704 3.121-.028 3.805-.38 4.645-2.44 7.89-7.333 10.448-11.807.102-.013 1.499-.053 2.556-.325.014 0 .02 0 .043.014-.061.203-.607 1.83-.607 1.83-1.621 4.744-2.371 7.97-.839 9.882 2.188 2.697 5.812-.095 8.759-3.782-.633 4.418 1.663 5.11 3.413 4.771 2.01-.542 4.249-2.684 5.289-3.781-.334 1.287-.243 3.592 1.585 3.822 1.253.231 2.191-.45 3.277-1.032 3.892-2.115 8.552-9.162 9.762-11.2h-1.586c-1.72 2.594-3.908 5.994-6.661 7.608h-.001zm-59.97-26.314h4.455l2.514-4.075h-4.456l-2.514 4.075zM141.56 5.562c-3.397 1.925-6.918 3.172-11.181 2.738a65.01 65.01 0 00-3.392 4.107c5.983 1.518 12.326-1.857 15.863-5.069 3.742-3.24 5.661-7.32 5.661-7.32s-2.805 3.2-6.951 5.544zm-37.462-1.03c-.709 8.106-7.024 12.864-8.587 13.243-.947.19-2.563-.23-1.12-3.632 2.124-4.582 5.751-8.472 9.642-10.465.095.339.092.555.064.854h.001zM91.793 24.959c-.453-.976-1.527-1.6-2.672-1.532-3.717.34-7.352 3.39-9.262 7.768-1.001 2.25-1.548 4.107-1.906 7.062 1.155-1.328 3.513-3.51 6.188-4.703 0 0 .364-2.833 2.22-5.355.703-1.044 2.11-2.724 3.688-2.277 1.379.461.894 4.27-.939 7.956-1.356 2.711-3.432 5.423-5.532 7.293-1.856 1.573-4.603 3.47-7.007 2.007-1.513-.895-2.285-2.766-2.122-5.179.723-6.845 3.846-12.674 8.315-19.316 4.609-6.167 9.688-12.497 16.532-15.873 1.396-.705 2.688-.868 3.806-.434 0 0-6.424 3.524-9.487 10.045-.778 1.654-1.862 3.89-.77 5.869.57 1.03 1.582 1.111 2.396 1.057 3.754-.868 6.179-4.365 8.161-7.563 1.148-2.427 2.169-4.84 2.169-7.524 0-.325-.017-.759-.044-1.084 1.793-.949 5.47.732 5.47.732 2.874.949 8.993 5.626 11.056 6.52 1.007-1.166 2.662-2.928 3.593-3.809l-1.348-.827c-2.159-1.315-4.442-2.562-6.688-3.795-5.101-2.779-9.254-1.803-11.367-1.044-.831.298-1.59.556-1.59.556-1.568-1.708-4.14-1.546-6.035-1.085-6.816 1.952-13.144 6.71-19.928 14.965-4.988 6.466-8.082 12.051-9.73 17.568-1.272 3.713-1.658 9.176 1.444 12.416 2.638 2.75 6.136 2.155 8.606 1.166 5.352-2.63 10.161-8.297 12.558-14.816.579-1.938 1.22-4.677.225-6.764zm-59.32-6.289c-.01.027-.91 2.087-.91 2.087-.13.109-.335.055-.571 0l-.404-.068c-1.268-.393-2.225-1.233-2.52-2.236-.407-1.952 1.264-3.484 2-4.04.707-.488 1.806-.745 2.443-.244.394.461.543 1.058.543 1.709 0 .88-.272 1.87-.582 2.792zm-1.934 3.917s-.04.122-.06.163c-.006 0-2.047 3.32-2.047 3.32-1.231 1.64-2.769 3.701-4.691 4.69-.57.19-1.357.313-1.759-.189-.85-1.017-.412-2.426-.056-3.565l.126-.406c1.022-2.765 2.643-5.206 4.22-7.47a.207.207 0 01.08-.027c.003.014.01.014.012.041.99 1.897 2.846 2.778 4.234 3.185.009 0 .018.014.018.041 0 .04-.023.095-.077.217zm25.527-2.182c.912-1.26 3.57-4.636 4.217-5.205 2.178-1.912 3.049-1.07 3.124-.475a428.476 428.476 0 01-6.688 11.536c.005-.014-.706 1.07-.706 1.07-.996 1.518-2 2.82-3.636 3.727-.233.069-.618.096-.874-.095-.308-.203-.43-.542-.395-.895.098-1.165 1.287-4.73 4.958-9.663zm-22.623-8.242c-2.816-1.843-8.476 1.681-13.01 7.726-4.145 5.423-5.935 11.725-3.987 14.64 2.898 3.429 8.278-1.56 10.566-4.229l.295-.312c1.556-1.667 2.758-3.674 3.921-5.599l1.12-1.843a25.297 25.297 0 002.355-.57c-.013.041-3.432 5.775-3.083 8.621.108.869.025 4.04 3.13 5.003 4.136.691 7.44-2.508 10.353-5.355l.778-.744-.164.663c-1.21 4.202.422 5.084 1.443 5.409 3.086.895 6.773-3.579 6.785-3.579-.096 1.41-.375 2.575 1.114 3.51 1.405.503 2.827-.262 3.908-.98 3.894-2.739 7.031-7.024 9.565-10.729h-1.617c-.019 0-3.988 5.74-6.565 6.987-.004 0-.473.24-.743.05-.335-.284-.203-.876.003-1.296.013-.027 9.952-17.224 9.952-17.224h-4.693s-.512.827-.554.882c-.032-.028-.107-.17-.159-.238-2.907-4.012-9.49 2.16-14.447 9.316-1.909 2.752-4.338 5.85-6.857 8.087 0 0-3.732 3.413-5.327.96-.583-1.03-.403-2.536-.075-3.525 1.857-5.273 5.056-10.058 8.697-12.946 1.027-.8 2.144-1.03 2.699-.691.528.312.613 1.084.279 1.613-.848-.027-1.527.23-2.08.799-1.087 1.139-1.465 2.237-1.12 3.267 1.68 2.386 5.032-2.331 4.87-5.205-.058-1.03-.61-2.006-1.431-2.481-1.226-.732-3.095-.542-4.305.041-1.62.61-4.183 2.738-5.68 4.392-1.884 2.074-5.115 4.378-6.125 4.12.33-.881 3.06-6.452.19-8.54zm23.586 30.16c-5.526-3.551-13.026-4.175-25.121-.827-12.894 3.023-17.194 4.961-22.84 1.071-2.168-1.91-2.946-4.988-2.365-9.42 1.346-7.225 4.986-14.179 11.451-21.891 3.61-4.012 6.956-7.456 11.377-8.838 3.387-.867 3.07 1.789 2.66 2.169-.432 0-1.159.068-1.72.433-.456.353-1.707 1.492-1.774 3.023-.097 2.345 2.335 1.857 3.384.57 1.131-1.451 2.802-4.23 1.488-6.819C33.018.873 32.066.236 30.884.02c-4.047-.23-7.817 1.694-11.296 3.822-7.606 5.273-13.692 12.58-17.136 20.577-1.985 4.825-3.78 11.738-1.09 17.364 2.083 3.903 6.405 5.977 11.563 5.543 3.617-.379 7.99-1.545 10.932-2.25 2.941-.705 17.998-5.869 22.946 3.119 0 0 1.645-3.186 5.756-3.254 3.38-.311 8.257.976 11.808 3.578-1.183-1.775-4.537-4.391-7.335-6.194h-.003z" fill="#000"/></svg>