<svg width="74" height="62" fill="none" xmlns="http://www.w3.org/2000/svg"><path d="M32.192 16.107L28.096 3.97c.223-.13.459-.26.694-.377L27.684.165c-.283.024-.565.059-.836.094-.13.012-.259.036-.377.047-.011 0-.035 0-.047.012l5.426 16.06c.106-.094.224-.177.342-.271zm-1.307 1.072l-5.32-11.606c.212-.153.424-.294.647-.436L24.247.707c-.283.059-.553.13-.824.188-.118.036-.247.06-.365.095-.024 0-.035.012-.059.012l7.557 16.472c.117-.095.223-.2.33-.295zm-1.153 1.131L23.246 7.364c.2-.165.389-.33.589-.495l-2.978-5.22c-.27.095-.542.19-.812.295-.118.047-.224.083-.342.13-.023.012-.035.012-.058.023l9.792 16.543.295-.33zM28.72 19.5L21.163 9.32c.177-.188.353-.365.541-.542l-4.166-5.762-.777.39c-.106.058-.212.105-.318.164l-.07.035 12.064 16.249.283-.354zm-.883 1.226l-8.546-9.297c.154-.2.318-.389.483-.589l-5.426-6.056c-.247.153-.494.318-.73.483-.094.07-.188.13-.282.2-.024.012-.047.035-.07.047L27.59 21.091c.082-.13.164-.248.247-.365zm-.765 1.249l-9.428-8.307c.14-.212.282-.412.423-.613l-6.709-6.08a9.279 9.279 0 00-.67.554c-.083.07-.165.142-.26.224-.023.012-.035.035-.058.059l16.502 14.54c.058-.13.13-.26.2-.377zm-.812 1.661c.058-.13.117-.271.176-.4l-10.205-7.247c.118-.212.247-.436.365-.648l-7.98-5.832c-.212.212-.412.424-.6.636a2.364 2.364 0 00-.224.259 47.1 47.1 0 01-.07.07s8.285 5.904 8.297 5.892l10.24 7.27zm-.354.872l-10.875-6.115c.105-.224.2-.448.305-.672l-9.169-5.326c-.176.236-.353.472-.517.72-.06.093-.13.176-.189.27-.023.024-.035.059-.059.082L25.753 24.92c.047-.141.094-.27.153-.412zm-.423 1.284l-11.417-4.925c.082-.236.164-.46.247-.695L4.084 15.588c-.14.26-.294.519-.435.778-.047.094-.106.189-.153.283-.012.035-.035.059-.047.094l21.928 9.462a3.05 3.05 0 01.106-.413zm-.33 1.296l-11.852-3.7c.058-.235.117-.47.188-.707l-11.123-3.64c-.118.27-.224.553-.33.824-.035.107-.07.2-.117.295l-.036.106 23.176 7.235c.035-.13.07-.271.094-.413zm-.223 1.284l-12.147-2.427c.035-.235.082-.483.129-.718L1.118 22.705a19.81 19.81 0 00-.224.872c-.023.106-.047.2-.07.306-.012.036-.012.071-.024.106l24.082 4.808a5.18 5.18 0 01.047-.425zm-.142 1.297l-12.323-1.131c.023-.248.035-.484.07-.731L.318 26.511c-.047.294-.083.589-.118.895l-.035.319c0 .035-.012.07-.012.105l24.612 2.263c.011-.142.011-.283.023-.424zm-12.406 1.885l12.371-.165v-.424l-12.37.165v-.118c0-.2 0-.4.011-.601H.012C0 30.599 0 30.8 0 31v.73l8.263-.117c.012 0 4.12-.036 4.12-.06zm12.406.695L12.571 33.71a16.07 16.07 0 01-.094-.719l-12.3 1.296.106.896c.011.106.023.212.047.318 0 .035.012.07.012.106l24.482-2.922c-.024-.153-.024-.295-.036-.436zm.13 1.296l-11.794 2.698c-.06-.224-.13-.448-.177-.671L.824 38.152c.07.283.13.554.212.837.023.094.047.176.07.27l.036.142 23.834-5.444a4.335 4.335 0 01-.058-.412zm.953 3.877l-9.193 5.502c-.14-.165-.27-.33-.412-.507l-10.78 6.257c.153.224.318.448.47.66.071.082.118.153.165.224l.106.141 19.81-11.877c-.059-.13-.106-.27-.165-.4zm.529 1.284l-8.003 6.02a16.454 16.454 0 01-.47-.447l-10.1 7.376c.177.2.365.4.542.6.058.06.117.13.176.19.035.035.07.082.118.117l17.914-13.467c-.047-.13-.117-.26-.176-.39zm.648 1.272l-6.732 6.269a8.343 8.343 0 01-.518-.377l-9.299 8.424c.2.177.4.354.612.53.07.06.141.118.212.177.035.035.082.07.118.106l15.83-14.74a6.59 6.59 0 01-.223-.389zm.753 1.262l-5.45 6.256a8.338 8.338 0 01-.552-.307l-8.404 9.391c.223.153.435.295.659.448.082.047.153.106.235.153.047.024.082.059.13.082l13.63-15.647c-.083-.13-.165-.247-.248-.377zm.895 1.236l-4.19 5.974c-.2-.07-.389-.153-.589-.224l-7.403 10.251c.235.118.47.247.706.365.082.047.176.083.259.13.047.023.082.035.13.059l11.37-16.201c-.107-.13-.2-.236-.283-.354zm1.012 1.19l-3.013 5.42c-.2-.047-.4-.094-.612-.153l-6.32 11.017c.246.094.494.188.729.27.094.036.188.072.282.095.047.012.083.035.13.047l9.11-16.378a8.33 8.33 0 01-.306-.318zm1.165 1.155l-1.977 4.642a87.065 87.065 0 01-.612-.07l-5.156 11.653c.248.059.506.13.754.188.094.024.2.047.294.07.047.013.082.024.13.024l6.909-16.2c-.118-.107-.224-.213-.342-.307zm1.319 1.072l-1.13 3.653h-.577l-3.931 12.16c.247.035.482.058.73.094l.282.035c.047 0 .106.012.153.012l4.838-15.695a4.082 4.082 0 01-.365-.259zm6.898-31.471l.164-1.544c-.141.036-.294.071-.436.106L39.984.177l-.365.035-1.166 12.855-.094 1.001c.012.012.036.012.047.024.095.047.2.094.295.141.13.06.259.118.388.189zM36.806.672c.07-.012.13-.024.2-.048-.07-.011-.13-.023-.2-.035-.024 0-.06-.012-.083-.012-.117-.035-.235-.047-.353-.07v.259l.177 12.925c.14-.059.282-.106.423-.165L36.806.672zm-1.978 13.785a7.1 7.1 0 01.4-.2L33.722 1.485c.259-.083.506-.165.765-.236L34.38.2a17.28 17.28 0 00-.824-.082l-.4-.036h-.035l.176 1.544 1.53 12.831zm-1.565.907c.13-.082.26-.165.377-.235L30.815 2.604c.247-.106.482-.212.73-.306L31.062 0h-.247c-.2 0-.389 0-.577.012-.13 0-.259.012-.388.012h-.036l.624 2.757 2.825 12.583zM25.142 34.83l-11.135 3.817c-.094-.2-.177-.4-.259-.601L1.954 41.899c.094.26.2.518.294.766.036.07.06.153.095.235.023.06.047.107.07.165l22.811-7.8c-.023-.153-.059-.294-.082-.436zm.318 1.295l-10.253 4.76c-.117-.188-.223-.365-.34-.553L3.52 45.41c.129.248.258.483.388.719.035.07.082.141.13.224.023.047.058.106.082.153l21.457-9.968c-.035-.13-.082-.271-.118-.413zm8.191 10.758l-.494 2.521c-.177.024-.353.036-.53.06L29.98 61.987c.224.012.459.012.683.012h.423l2.931-14.881a16.566 16.566 0 00-.365-.236zm1.495 2.157c-.153.035-.318.07-.47.105l-1.33 12.749c.211-.012.423-.035.635-.059.07-.012.153-.012.223-.023.071-.012.142-.012.212-.024l1.26-13.845c-.142-.058-.271-.13-.412-.188l-.118 1.284zm2.248-.696c-.012.012-.035.012-.047.024-.07.023-.141.047-.212.082-.047.012-.082.035-.13.047a5.195 5.195 0 01-.388.13v12.831c.13-.023.26-.047.389-.082.105.023.2.035.306.059l.212.035v-.212l-.13-12.914zm1.872.919l-.177-1.673c-.011 0-.011.012-.023.012-.07.035-.13.07-.2.106l-.46.212 1.33 12.772c.213-.059.425-.13.636-.2l.165 1.414c.07.011.141.011.212.023l-.177-1.496-1.306-11.17zm1.377-2.557c-.07.047-.13.083-.188.118-.13.083-.26.153-.389.236l2.649 12.548.565-.247.588 2.639c.07 0 .142 0 .212-.012l-.612-2.722-2.825-12.56zm1.507-.813l-.071-.2-.176.141c-.118.095-.236.177-.365.271l3.93 12.184c.177-.095.354-.2.53-.295l1.272 3.759c.07-.012.141-.024.212-.024l-1.295-3.83-4.037-12.006zm1.518-.624l-.294-.672-.012.012c-.059.047-.106.106-.165.153-.106.094-.212.2-.33.295l5.168 11.676c.165-.118.33-.224.494-.341l2.154 4.7c.07-.023.141-.035.212-.046l-2.19-4.784-5.037-10.993zm.824-1.815l-.012.012c-.047.047-.094.094-.141.153a6.442 6.442 0 01-.271.283l6.332 11.04c.142-.118.283-.235.424-.365l3.225 5.444c.07-.024.13-.048.2-.083l-3.26-5.514-6.497-10.97zm.988-1.214c0 .012 0 .012 0 0-.046.071-.094.118-.129.177-.082.106-.153.2-.235.295l7.415 10.274.388-.389 4.414 5.95c.06-.035.13-.07.189-.094l-4.461-6.009-7.58-10.203zm.872-1.237c-.012.012-.012.012 0 0-.047.071-.083.13-.118.189l-.212.318 8.416 9.403c.117-.142.235-.283.341-.425l5.685 6.186c.059-.035.118-.082.177-.118l-5.732-6.232-8.557-9.32zm.729-1.26c0 .011 0 .011 0 0-.035.07-.07.13-.106.188l-.176.318 9.322 8.437c.106-.142.2-.295.306-.448l6.98 6.15c.059-.047.106-.094.165-.14l-7.016-6.187-9.475-8.318zm.648-1.249l-.024-.024c-.023.07-.059.13-.094.2-.047.106-.106.224-.153.33l10.11 7.388c.083-.153.177-.306.26-.46l8.227 5.845c.047-.06.094-.106.141-.165l-8.274-5.88-10.193-7.234zm.718-1.167l-.247-.141c-.024.07-.047.141-.071.2-.047.118-.082.224-.13.33l10.794 6.268c.07-.165.141-.318.212-.483l9.404 5.29c.036-.058.083-.117.118-.176l-9.44-5.314-10.64-5.974zm.6-1.237l-.435-.2v.012c-.024.07-.036.14-.06.212-.035.117-.07.224-.093.341l11.358 5.09.176-.495 10.429 4.502c.035-.06.07-.13.106-.189L60.064 40.85l-11.017-4.76zm.459-1.296l-.6-.2v.011a1.38 1.38 0 01-.047.213c-.024.117-.047.223-.07.341l11.793 3.853c.047-.165.082-.33.13-.507l11.275 3.512c.024-.071.047-.13.071-.2l-11.3-3.524-11.252-3.499zm.318-1.344l-.718-.152v.011c-.012.071-.024.142-.024.213-.011.117-.035.235-.047.341l12.112 2.592c.035-.165.059-.341.082-.506l11.9 2.38c.012-.07.035-.142.047-.212l-11.912-2.38-11.44-2.286zm.188-1.354l-.777-.083v.012c0 .07-.012.142-.012.212-.011.118-.011.236-.023.342l12.3 1.296a7.63 7.63 0 01.047-.519l12.264 1.132c.012-.071.012-.142.024-.212l-12.276-1.12-11.547-1.06zm.048-1.379h-.801v.566h12.37v-.507L74 30.611V30.4l-12.37.165-11.57.153zm-.107-1.367l-.765.083v.012c.012.07.012.141.012.212.011.118.011.235.023.341l12.253-1.296-.07-.506 12.288-1.473-.035-.212-12.289 1.473-11.417 1.366zm-.247-1.355l-.67.142v.012c.01.07.023.141.035.212.011.117.035.224.047.341l11.876-2.545-.141-.494 12.088-2.758c-.024-.07-.036-.141-.06-.212L60.795 25.45l-11.088 2.546zm-.376-1.319l-.542.177v.011c.012.071.035.142.047.212.024.118.047.224.07.342l11.253-3.676c-.07-.153-.141-.318-.212-.471l11.759-4.018c-.024-.07-.059-.13-.082-.2L59.864 23.07 49.33 26.676zm-.518-1.273l-.365.165c.023.07.047.142.059.212.035.118.07.224.094.342l10.393-4.654a8.833 8.833 0 00-.27-.436l11.299-5.243c-.035-.06-.07-.13-.106-.189l-11.311 5.255-9.793 4.548zM48 24.249l.223.612s.035-.012.094-.047l9.275-5.396c-.117-.142-.223-.283-.341-.424l-.153.094c.094-.06.153-.094.153-.094l10.723-6.422c-.047-.059-.083-.118-.13-.177L57.11 18.83 48 24.249zm1.494-2.769l-2.048 1.496c0 .012.012.024.012.035.035.071.059.13.094.2.06.119.106.248.165.366l8.192-5.997a5.87 5.87 0 00-.4-.366l10.028-7.54c-.047-.048-.094-.107-.153-.154l-10.04 7.553-5.85 4.407zm-2.719.223s0 .012 0 0c.047.083.095.166.142.26.058.106.117.212.176.33L54.038 16c-.13-.095-.271-.189-.4-.283l9.216-8.578c-.083-.07-.153-.13-.224-.188l-9.24 8.601-6.615 6.15zm-.789-1.237c.012 0 .012 0 0 0a3 3 0 01.165.248c.07.106.141.212.2.318l5.65-6.316c-.141-.082-.294-.153-.435-.235l8.297-9.532c-.082-.047-.164-.106-.247-.153l-8.321 9.555-5.309 6.115zm-.906-1.225l.012.012.176.212.236.306 4.378-6.068-.459-.177 7.298-10.392c-.082-.047-.177-.082-.259-.13l-7.31 10.416-4.072 5.821zm-.553-2.062l-.506.884.012.012c.07.07.141.14.2.212.094.106.2.212.294.318l3.202-5.585a6.344 6.344 0 00-.507-.118l6.192-11.146c-.095-.036-.177-.06-.271-.095l-6.215 11.17-2.4 4.348zm-1.471-.731l-.212.484h.011c.071.07.154.13.224.2.106.094.212.2.33.294l2.142-4.842c-.165-.024-.341-.035-.506-.06L50.059.755c-.094-.023-.188-.047-.282-.059l-5.05 11.818-1.671 3.935zm-1.578-.588c.012.011.024.011.036.023l.27.2c.107.083.224.165.33.248l1.26-3.889h-.461L46.694.19a39.354 39.354 0 00-.365-.036l-3.79 12.301-1.06 3.405zm-1.165-.755c.118.071.236.142.353.224l.589-2.769c-.153.012-.306.036-.447.047L43.29 0h-.353l-2.495 12.655-.447 2.25c.011.012.023.012.035.024l.282.176z" fill="#000"/></svg>